<svg width="798" height="490" viewBox="0 0 798 490" fill="none" xmlns="http://www.w3.org/2000/svg">
<circle cx="779" cy="19" r="19" fill="#264A51"/>
<circle cx="779" cy="71" r="19" fill="#71B3C6"/>
<circle cx="19" cy="19" r="19" fill="#264A51"/>
<circle cx="398" cy="19" r="19" fill="#264A51"/>
<path d="M8 18.98V20.012H5.36V18.98H8ZM11.216 16.304C10.96 16.304 10.716 16.352 10.484 16.448C10.252 16.536 10.004 16.684 9.74 16.892L9.2 16.088C9.544 15.808 9.884 15.612 10.22 15.5C10.564 15.38 10.92 15.32 11.288 15.32C11.688 15.32 12.04 15.38 12.344 15.5C12.648 15.612 12.9 15.768 13.1 15.968C13.3 16.168 13.448 16.404 13.544 16.676C13.648 16.948 13.7 17.244 13.7 17.564C13.7 18.132 13.484 18.716 13.052 19.316C12.62 19.916 12.028 20.58 11.276 21.308L10.556 22.004H13.844V23H9.272L9.044 22.148L10.076 21.116C10.5 20.692 10.86 20.316 11.156 19.988C11.46 19.652 11.704 19.348 11.888 19.076C12.08 18.804 12.22 18.552 12.308 18.32C12.396 18.088 12.44 17.856 12.44 17.624C12.44 17.232 12.336 16.916 12.128 16.676C11.92 16.428 11.616 16.304 11.216 16.304ZM18.3962 15.32C18.8282 15.32 19.2242 15.396 19.5842 15.548C19.9522 15.692 20.2682 15.924 20.5322 16.244C20.7962 16.556 21.0042 16.96 21.1562 17.456C21.3082 17.944 21.3842 18.532 21.3842 19.22C21.3842 19.908 21.3002 20.496 21.1322 20.984C20.9722 21.472 20.7522 21.876 20.4722 22.196C20.2002 22.516 19.8842 22.752 19.5242 22.904C19.1642 23.048 18.7842 23.12 18.3842 23.12C17.9522 23.12 17.5522 23.048 17.1842 22.904C16.8242 22.752 16.5082 22.52 16.2362 22.208C15.9722 21.888 15.7642 21.484 15.6122 20.996C15.4602 20.5 15.3842 19.908 15.3842 19.22C15.3842 18.564 15.4642 17.992 15.6242 17.504C15.7922 17.008 16.0122 16.6 16.2842 16.28C16.5642 15.96 16.8842 15.72 17.2442 15.56C17.6122 15.4 17.9962 15.32 18.3962 15.32ZM16.6682 19.22C16.6682 19.82 16.7162 20.312 16.8122 20.696C16.9082 21.072 17.0362 21.372 17.1962 21.596C17.3562 21.812 17.5402 21.964 17.7482 22.052C17.9562 22.132 18.1722 22.172 18.3962 22.172C18.6202 22.172 18.8362 22.128 19.0442 22.04C19.2522 21.944 19.4322 21.784 19.5842 21.56C19.7442 21.336 19.8682 21.036 19.9562 20.66C20.0522 20.276 20.1002 19.796 20.1002 19.22C20.1002 18.62 20.0522 18.132 19.9562 17.756C19.8602 17.372 19.7322 17.072 19.5722 16.856C19.4202 16.632 19.2402 16.48 19.0322 16.4C18.8242 16.312 18.6082 16.268 18.3842 16.268C18.1602 16.268 17.9442 16.316 17.7362 16.412C17.5282 16.5 17.3442 16.656 17.1842 16.88C17.0322 17.104 16.9082 17.408 16.8122 17.792C16.7162 18.168 16.6682 18.644 16.6682 19.22ZM24.3132 23L29.5572 14H30.3972L25.1532 23H24.3132ZM31.8132 20.852C31.8132 21.156 31.7692 21.448 31.6812 21.728C31.6012 22 31.4772 22.24 31.3092 22.448C31.1412 22.656 30.9292 22.82 30.6732 22.94C30.4252 23.06 30.1372 23.12 29.8092 23.12C29.4892 23.12 29.2052 23.06 28.9572 22.94C28.7092 22.82 28.5012 22.656 28.3332 22.448C28.1652 22.24 28.0372 22 27.9492 21.728C27.8692 21.448 27.8292 21.156 27.8292 20.852C27.8292 20.548 27.8732 20.26 27.9612 19.988C28.0572 19.716 28.1892 19.48 28.3572 19.28C28.5332 19.072 28.7452 18.908 28.9932 18.788C29.2412 18.668 29.5252 18.608 29.8452 18.608C30.1572 18.608 30.4332 18.668 30.6732 18.788C30.9212 18.908 31.1292 19.072 31.2972 19.28C31.4652 19.48 31.5932 19.716 31.6812 19.988C31.7692 20.26 31.8132 20.548 31.8132 20.852ZM30.8292 20.852C30.8292 20.66 30.8132 20.472 30.7812 20.288C30.7492 20.104 30.6932 19.94 30.6132 19.796C30.5412 19.652 30.4412 19.54 30.3132 19.46C30.1852 19.372 30.0292 19.328 29.8452 19.328C29.6612 19.328 29.5052 19.372 29.3772 19.46C29.2492 19.54 29.1412 19.648 29.0532 19.784C28.9732 19.92 28.9132 20.084 28.8732 20.276C28.8332 20.46 28.8132 20.652 28.8132 20.852C28.8132 21.06 28.8292 21.26 28.8612 21.452C28.9012 21.636 28.9612 21.8 29.0412 21.944C29.1212 22.08 29.2212 22.192 29.3412 22.28C29.4692 22.36 29.6252 22.4 29.8092 22.4C30.1692 22.4 30.4292 22.256 30.5892 21.968C30.7492 21.68 30.8292 21.308 30.8292 20.852ZM26.7372 16.244C26.7372 16.548 26.6932 16.84 26.6052 17.12C26.5172 17.392 26.3892 17.632 26.2212 17.84C26.0532 18.048 25.8452 18.212 25.5972 18.332C25.3492 18.452 25.0612 18.512 24.7332 18.512C24.4132 18.512 24.1292 18.452 23.8812 18.332C23.6332 18.212 23.4252 18.048 23.2572 17.84C23.0892 17.632 22.9612 17.392 22.8732 17.12C22.7932 16.84 22.7532 16.548 22.7532 16.244C22.7532 15.94 22.7972 15.652 22.8852 15.38C22.9812 15.108 23.1132 14.872 23.2812 14.672C23.4572 14.464 23.6692 14.3 23.9172 14.18C24.1652 14.06 24.4492 14 24.7692 14C25.0812 14 25.3572 14.06 25.5972 14.18C25.8452 14.3 26.0532 14.464 26.2212 14.672C26.3892 14.872 26.5172 15.108 26.6052 15.38C26.6932 15.652 26.7372 15.94 26.7372 16.244ZM25.7532 16.244C25.7532 16.052 25.7372 15.868 25.7052 15.692C25.6732 15.508 25.6172 15.348 25.5372 15.212C25.4652 15.068 25.3652 14.956 25.2372 14.876C25.1092 14.788 24.9532 14.744 24.7692 14.744C24.5852 14.744 24.4292 14.784 24.3012 14.864C24.1732 14.944 24.0652 15.056 23.9772 15.2C23.8972 15.336 23.8372 15.496 23.7972 15.68C23.7572 15.856 23.7372 16.044 23.7372 16.244C23.7372 16.452 23.7532 16.652 23.7852 16.844C23.8252 17.028 23.8852 17.192 23.9652 17.336C24.0452 17.472 24.1452 17.584 24.2652 17.672C24.3932 17.752 24.5492 17.792 24.7332 17.792C25.0852 17.792 25.3412 17.648 25.5012 17.36C25.6692 17.072 25.7532 16.7 25.7532 16.244Z" fill="white"/>
<path d="M387 18.98V20.012H384.36V18.98H387ZM390.216 16.304C389.96 16.304 389.716 16.352 389.484 16.448C389.252 16.536 389.004 16.684 388.74 16.892L388.2 16.088C388.544 15.808 388.884 15.612 389.22 15.5C389.564 15.38 389.92 15.32 390.288 15.32C390.688 15.32 391.04 15.38 391.344 15.5C391.648 15.612 391.9 15.768 392.1 15.968C392.3 16.168 392.448 16.404 392.544 16.676C392.648 16.948 392.7 17.244 392.7 17.564C392.7 18.132 392.484 18.716 392.052 19.316C391.62 19.916 391.028 20.58 390.276 21.308L389.556 22.004H392.844V23H388.272L388.044 22.148L389.076 21.116C389.5 20.692 389.86 20.316 390.156 19.988C390.46 19.652 390.704 19.348 390.888 19.076C391.08 18.804 391.22 18.552 391.308 18.32C391.396 18.088 391.44 17.856 391.44 17.624C391.44 17.232 391.336 16.916 391.128 16.676C390.92 16.428 390.616 16.304 390.216 16.304ZM397.396 15.32C397.828 15.32 398.224 15.396 398.584 15.548C398.952 15.692 399.268 15.924 399.532 16.244C399.796 16.556 400.004 16.96 400.156 17.456C400.308 17.944 400.384 18.532 400.384 19.22C400.384 19.908 400.3 20.496 400.132 20.984C399.972 21.472 399.752 21.876 399.472 22.196C399.2 22.516 398.884 22.752 398.524 22.904C398.164 23.048 397.784 23.12 397.384 23.12C396.952 23.12 396.552 23.048 396.184 22.904C395.824 22.752 395.508 22.52 395.236 22.208C394.972 21.888 394.764 21.484 394.612 20.996C394.46 20.5 394.384 19.908 394.384 19.22C394.384 18.564 394.464 17.992 394.624 17.504C394.792 17.008 395.012 16.6 395.284 16.28C395.564 15.96 395.884 15.72 396.244 15.56C396.612 15.4 396.996 15.32 397.396 15.32ZM395.668 19.22C395.668 19.82 395.716 20.312 395.812 20.696C395.908 21.072 396.036 21.372 396.196 21.596C396.356 21.812 396.54 21.964 396.748 22.052C396.956 22.132 397.172 22.172 397.396 22.172C397.62 22.172 397.836 22.128 398.044 22.04C398.252 21.944 398.432 21.784 398.584 21.56C398.744 21.336 398.868 21.036 398.956 20.66C399.052 20.276 399.1 19.796 399.1 19.22C399.1 18.62 399.052 18.132 398.956 17.756C398.86 17.372 398.732 17.072 398.572 16.856C398.42 16.632 398.24 16.48 398.032 16.4C397.824 16.312 397.608 16.268 397.384 16.268C397.16 16.268 396.944 16.316 396.736 16.412C396.528 16.5 396.344 16.656 396.184 16.88C396.032 17.104 395.908 17.408 395.812 17.792C395.716 18.168 395.668 18.644 395.668 19.22ZM403.313 23L408.557 14H409.397L404.153 23H403.313ZM410.813 20.852C410.813 21.156 410.769 21.448 410.681 21.728C410.601 22 410.477 22.24 410.309 22.448C410.141 22.656 409.929 22.82 409.673 22.94C409.425 23.06 409.137 23.12 408.809 23.12C408.489 23.12 408.205 23.06 407.957 22.94C407.709 22.82 407.501 22.656 407.333 22.448C407.165 22.24 407.037 22 406.949 21.728C406.869 21.448 406.829 21.156 406.829 20.852C406.829 20.548 406.873 20.26 406.961 19.988C407.057 19.716 407.189 19.48 407.357 19.28C407.533 19.072 407.745 18.908 407.993 18.788C408.241 18.668 408.525 18.608 408.845 18.608C409.157 18.608 409.433 18.668 409.673 18.788C409.921 18.908 410.129 19.072 410.297 19.28C410.465 19.48 410.593 19.716 410.681 19.988C410.769 20.26 410.813 20.548 410.813 20.852ZM409.829 20.852C409.829 20.66 409.813 20.472 409.781 20.288C409.749 20.104 409.693 19.94 409.613 19.796C409.541 19.652 409.441 19.54 409.313 19.46C409.185 19.372 409.029 19.328 408.845 19.328C408.661 19.328 408.505 19.372 408.377 19.46C408.249 19.54 408.141 19.648 408.053 19.784C407.973 19.92 407.913 20.084 407.873 20.276C407.833 20.46 407.813 20.652 407.813 20.852C407.813 21.06 407.829 21.26 407.861 21.452C407.901 21.636 407.961 21.8 408.041 21.944C408.121 22.08 408.221 22.192 408.341 22.28C408.469 22.36 408.625 22.4 408.809 22.4C409.169 22.4 409.429 22.256 409.589 21.968C409.749 21.68 409.829 21.308 409.829 20.852ZM405.737 16.244C405.737 16.548 405.693 16.84 405.605 17.12C405.517 17.392 405.389 17.632 405.221 17.84C405.053 18.048 404.845 18.212 404.597 18.332C404.349 18.452 404.061 18.512 403.733 18.512C403.413 18.512 403.129 18.452 402.881 18.332C402.633 18.212 402.425 18.048 402.257 17.84C402.089 17.632 401.961 17.392 401.873 17.12C401.793 16.84 401.753 16.548 401.753 16.244C401.753 15.94 401.797 15.652 401.885 15.38C401.981 15.108 402.113 14.872 402.281 14.672C402.457 14.464 402.669 14.3 402.917 14.18C403.165 14.06 403.449 14 403.769 14C404.081 14 404.357 14.06 404.597 14.18C404.845 14.3 405.053 14.464 405.221 14.672C405.389 14.872 405.517 15.108 405.605 15.38C405.693 15.652 405.737 15.94 405.737 16.244ZM404.753 16.244C404.753 16.052 404.737 15.868 404.705 15.692C404.673 15.508 404.617 15.348 404.537 15.212C404.465 15.068 404.365 14.956 404.237 14.876C404.109 14.788 403.953 14.744 403.769 14.744C403.585 14.744 403.429 14.784 403.301 14.864C403.173 14.944 403.065 15.056 402.977 15.2C402.897 15.336 402.837 15.496 402.797 15.68C402.757 15.856 402.737 16.044 402.737 16.244C402.737 16.452 402.753 16.652 402.785 16.844C402.825 17.028 402.885 17.192 402.965 17.336C403.045 17.472 403.145 17.584 403.265 17.672C403.393 17.752 403.549 17.792 403.733 17.792C404.085 17.792 404.341 17.648 404.501 17.36C404.669 17.072 404.753 16.7 404.753 16.244Z" fill="white"/>
<path d="M768 18.98V20.012H765.36V18.98H768ZM771.216 16.304C770.96 16.304 770.716 16.352 770.484 16.448C770.252 16.536 770.004 16.684 769.74 16.892L769.2 16.088C769.544 15.808 769.884 15.612 770.22 15.5C770.564 15.38 770.92 15.32 771.288 15.32C771.688 15.32 772.04 15.38 772.344 15.5C772.648 15.612 772.9 15.768 773.1 15.968C773.3 16.168 773.448 16.404 773.544 16.676C773.648 16.948 773.7 17.244 773.7 17.564C773.7 18.132 773.484 18.716 773.052 19.316C772.62 19.916 772.028 20.58 771.276 21.308L770.556 22.004H773.844V23H769.272L769.044 22.148L770.076 21.116C770.5 20.692 770.86 20.316 771.156 19.988C771.46 19.652 771.704 19.348 771.888 19.076C772.08 18.804 772.22 18.552 772.308 18.32C772.396 18.088 772.44 17.856 772.44 17.624C772.44 17.232 772.336 16.916 772.128 16.676C771.92 16.428 771.616 16.304 771.216 16.304ZM778.396 15.32C778.828 15.32 779.224 15.396 779.584 15.548C779.952 15.692 780.268 15.924 780.532 16.244C780.796 16.556 781.004 16.96 781.156 17.456C781.308 17.944 781.384 18.532 781.384 19.22C781.384 19.908 781.3 20.496 781.132 20.984C780.972 21.472 780.752 21.876 780.472 22.196C780.2 22.516 779.884 22.752 779.524 22.904C779.164 23.048 778.784 23.12 778.384 23.12C777.952 23.12 777.552 23.048 777.184 22.904C776.824 22.752 776.508 22.52 776.236 22.208C775.972 21.888 775.764 21.484 775.612 20.996C775.46 20.5 775.384 19.908 775.384 19.22C775.384 18.564 775.464 17.992 775.624 17.504C775.792 17.008 776.012 16.6 776.284 16.28C776.564 15.96 776.884 15.72 777.244 15.56C777.612 15.4 777.996 15.32 778.396 15.32ZM776.668 19.22C776.668 19.82 776.716 20.312 776.812 20.696C776.908 21.072 777.036 21.372 777.196 21.596C777.356 21.812 777.54 21.964 777.748 22.052C777.956 22.132 778.172 22.172 778.396 22.172C778.62 22.172 778.836 22.128 779.044 22.04C779.252 21.944 779.432 21.784 779.584 21.56C779.744 21.336 779.868 21.036 779.956 20.66C780.052 20.276 780.1 19.796 780.1 19.22C780.1 18.62 780.052 18.132 779.956 17.756C779.86 17.372 779.732 17.072 779.572 16.856C779.42 16.632 779.24 16.48 779.032 16.4C778.824 16.312 778.608 16.268 778.384 16.268C778.16 16.268 777.944 16.316 777.736 16.412C777.528 16.5 777.344 16.656 777.184 16.88C777.032 17.104 776.908 17.408 776.812 17.792C776.716 18.168 776.668 18.644 776.668 19.22ZM784.313 23L789.557 14H790.397L785.153 23H784.313ZM791.813 20.852C791.813 21.156 791.769 21.448 791.681 21.728C791.601 22 791.477 22.24 791.309 22.448C791.141 22.656 790.929 22.82 790.673 22.94C790.425 23.06 790.137 23.12 789.809 23.12C789.489 23.12 789.205 23.06 788.957 22.94C788.709 22.82 788.501 22.656 788.333 22.448C788.165 22.24 788.037 22 787.949 21.728C787.869 21.448 787.829 21.156 787.829 20.852C787.829 20.548 787.873 20.26 787.961 19.988C788.057 19.716 788.189 19.48 788.357 19.28C788.533 19.072 788.745 18.908 788.993 18.788C789.241 18.668 789.525 18.608 789.845 18.608C790.157 18.608 790.433 18.668 790.673 18.788C790.921 18.908 791.129 19.072 791.297 19.28C791.465 19.48 791.593 19.716 791.681 19.988C791.769 20.26 791.813 20.548 791.813 20.852ZM790.829 20.852C790.829 20.66 790.813 20.472 790.781 20.288C790.749 20.104 790.693 19.94 790.613 19.796C790.541 19.652 790.441 19.54 790.313 19.46C790.185 19.372 790.029 19.328 789.845 19.328C789.661 19.328 789.505 19.372 789.377 19.46C789.249 19.54 789.141 19.648 789.053 19.784C788.973 19.92 788.913 20.084 788.873 20.276C788.833 20.46 788.813 20.652 788.813 20.852C788.813 21.06 788.829 21.26 788.861 21.452C788.901 21.636 788.961 21.8 789.041 21.944C789.121 22.08 789.221 22.192 789.341 22.28C789.469 22.36 789.625 22.4 789.809 22.4C790.169 22.4 790.429 22.256 790.589 21.968C790.749 21.68 790.829 21.308 790.829 20.852ZM786.737 16.244C786.737 16.548 786.693 16.84 786.605 17.12C786.517 17.392 786.389 17.632 786.221 17.84C786.053 18.048 785.845 18.212 785.597 18.332C785.349 18.452 785.061 18.512 784.733 18.512C784.413 18.512 784.129 18.452 783.881 18.332C783.633 18.212 783.425 18.048 783.257 17.84C783.089 17.632 782.961 17.392 782.873 17.12C782.793 16.84 782.753 16.548 782.753 16.244C782.753 15.94 782.797 15.652 782.885 15.38C782.981 15.108 783.113 14.872 783.281 14.672C783.457 14.464 783.669 14.3 783.917 14.18C784.165 14.06 784.449 14 784.769 14C785.081 14 785.357 14.06 785.597 14.18C785.845 14.3 786.053 14.464 786.221 14.672C786.389 14.872 786.517 15.108 786.605 15.38C786.693 15.652 786.737 15.94 786.737 16.244ZM785.753 16.244C785.753 16.052 785.737 15.868 785.705 15.692C785.673 15.508 785.617 15.348 785.537 15.212C785.465 15.068 785.365 14.956 785.237 14.876C785.109 14.788 784.953 14.744 784.769 14.744C784.585 14.744 784.429 14.784 784.301 14.864C784.173 14.944 784.065 15.056 783.977 15.2C783.897 15.336 783.837 15.496 783.797 15.68C783.757 15.856 783.737 16.044 783.737 16.244C783.737 16.452 783.753 16.652 783.785 16.844C783.825 17.028 783.885 17.192 783.965 17.336C784.045 17.472 784.145 17.584 784.265 17.672C784.393 17.752 784.549 17.792 784.733 17.792C785.085 17.792 785.341 17.648 785.501 17.36C785.669 17.072 785.753 16.7 785.753 16.244Z" fill="white"/>
<path d="M767.912 67.44H769.052L772.22 71.964C772.364 72.172 772.5 72.38 772.628 72.588C772.756 72.796 772.864 72.984 772.952 73.152H772.976C772.936 72.56 772.916 71.972 772.916 71.388C772.916 70.796 772.916 70.2 772.916 69.6V67.44H774.152V75H773.012L769.928 70.62C769.776 70.404 769.628 70.172 769.484 69.924C769.34 69.668 769.216 69.44 769.112 69.24H769.088C769.128 69.864 769.148 70.484 769.148 71.1C769.148 71.708 769.148 72.32 769.148 72.936V75H767.912V67.44ZM781.291 72.384H777.319V72.432C777.319 73.008 777.487 73.444 777.822 73.74C778.159 74.036 778.603 74.184 779.155 74.184C779.459 74.184 779.731 74.16 779.971 74.112C780.219 74.056 780.467 73.972 780.715 73.86L780.955 74.76C780.723 74.864 780.447 74.948 780.127 75.012C779.807 75.084 779.455 75.12 779.071 75.12C778.663 75.12 778.275 75.064 777.906 74.952C777.539 74.84 777.215 74.664 776.935 74.424C776.663 74.184 776.447 73.88 776.287 73.512C776.126 73.144 776.046 72.704 776.046 72.192C776.046 71.752 776.11 71.352 776.238 70.992C776.374 70.624 776.562 70.312 776.802 70.056C777.051 69.792 777.347 69.592 777.691 69.456C778.043 69.312 778.431 69.24 778.855 69.24C779.223 69.24 779.554 69.3 779.85 69.42C780.155 69.54 780.411 69.712 780.619 69.936C780.835 70.152 780.999 70.42 781.111 70.74C781.231 71.052 781.291 71.4 781.291 71.784V72.384ZM780.019 71.52C780.019 71.328 779.995 71.148 779.947 70.98C779.899 70.812 779.827 70.668 779.731 70.548C779.635 70.42 779.507 70.32 779.347 70.248C779.195 70.168 779.011 70.128 778.794 70.128C778.395 70.128 778.067 70.256 777.811 70.512C777.563 70.768 777.411 71.112 777.355 71.544L780.019 71.52ZM782.309 69.336H783.617L784.505 72.708L784.721 74.052H784.769L785.033 72.708L785.909 69.336H787.229L788.141 72.708L788.393 74.052H788.441L788.693 72.708L789.557 69.336H790.817L789.149 75H787.721L786.833 71.664L786.569 70.272L786.293 71.664L785.381 75H784.001L782.309 69.336Z" fill="#D4DCE2"/>
<circle cx="397" cy="419" r="19" fill="#264A51"/>
<circle cx="397" cy="471" r="19" fill="#71B3C6"/>
<path d="M386 418.98V420.012H383.36V418.98H386ZM389.216 416.304C388.96 416.304 388.716 416.352 388.484 416.448C388.252 416.536 388.004 416.684 387.74 416.892L387.2 416.088C387.544 415.808 387.884 415.612 388.22 415.5C388.564 415.38 388.92 415.32 389.288 415.32C389.688 415.32 390.04 415.38 390.344 415.5C390.648 415.612 390.9 415.768 391.1 415.968C391.3 416.168 391.448 416.404 391.544 416.676C391.648 416.948 391.7 417.244 391.7 417.564C391.7 418.132 391.484 418.716 391.052 419.316C390.62 419.916 390.028 420.58 389.276 421.308L388.556 422.004H391.844V423H387.272L387.044 422.148L388.076 421.116C388.5 420.692 388.86 420.316 389.156 419.988C389.46 419.652 389.704 419.348 389.888 419.076C390.08 418.804 390.22 418.552 390.308 418.32C390.396 418.088 390.44 417.856 390.44 417.624C390.44 417.232 390.336 416.916 390.128 416.676C389.92 416.428 389.616 416.304 389.216 416.304ZM396.396 415.32C396.828 415.32 397.224 415.396 397.584 415.548C397.952 415.692 398.268 415.924 398.532 416.244C398.796 416.556 399.004 416.96 399.156 417.456C399.308 417.944 399.384 418.532 399.384 419.22C399.384 419.908 399.3 420.496 399.132 420.984C398.972 421.472 398.752 421.876 398.472 422.196C398.2 422.516 397.884 422.752 397.524 422.904C397.164 423.048 396.784 423.12 396.384 423.12C395.952 423.12 395.552 423.048 395.184 422.904C394.824 422.752 394.508 422.52 394.236 422.208C393.972 421.888 393.764 421.484 393.612 420.996C393.46 420.5 393.384 419.908 393.384 419.22C393.384 418.564 393.464 417.992 393.624 417.504C393.792 417.008 394.012 416.6 394.284 416.28C394.564 415.96 394.884 415.72 395.244 415.56C395.612 415.4 395.996 415.32 396.396 415.32ZM394.668 419.22C394.668 419.82 394.716 420.312 394.812 420.696C394.908 421.072 395.036 421.372 395.196 421.596C395.356 421.812 395.54 421.964 395.748 422.052C395.956 422.132 396.172 422.172 396.396 422.172C396.62 422.172 396.836 422.128 397.044 422.04C397.252 421.944 397.432 421.784 397.584 421.56C397.744 421.336 397.868 421.036 397.956 420.66C398.052 420.276 398.1 419.796 398.1 419.22C398.1 418.62 398.052 418.132 397.956 417.756C397.86 417.372 397.732 417.072 397.572 416.856C397.42 416.632 397.24 416.48 397.032 416.4C396.824 416.312 396.608 416.268 396.384 416.268C396.16 416.268 395.944 416.316 395.736 416.412C395.528 416.5 395.344 416.656 395.184 416.88C395.032 417.104 394.908 417.408 394.812 417.792C394.716 418.168 394.668 418.644 394.668 419.22ZM402.313 423L407.557 414H408.397L403.153 423H402.313ZM409.813 420.852C409.813 421.156 409.769 421.448 409.681 421.728C409.601 422 409.477 422.24 409.309 422.448C409.141 422.656 408.929 422.82 408.673 422.94C408.425 423.06 408.137 423.12 407.809 423.12C407.489 423.12 407.205 423.06 406.957 422.94C406.709 422.82 406.501 422.656 406.333 422.448C406.165 422.24 406.037 422 405.949 421.728C405.869 421.448 405.829 421.156 405.829 420.852C405.829 420.548 405.873 420.26 405.961 419.988C406.057 419.716 406.189 419.48 406.357 419.28C406.533 419.072 406.745 418.908 406.993 418.788C407.241 418.668 407.525 418.608 407.845 418.608C408.157 418.608 408.433 418.668 408.673 418.788C408.921 418.908 409.129 419.072 409.297 419.28C409.465 419.48 409.593 419.716 409.681 419.988C409.769 420.26 409.813 420.548 409.813 420.852ZM408.829 420.852C408.829 420.66 408.813 420.472 408.781 420.288C408.749 420.104 408.693 419.94 408.613 419.796C408.541 419.652 408.441 419.54 408.313 419.46C408.185 419.372 408.029 419.328 407.845 419.328C407.661 419.328 407.505 419.372 407.377 419.46C407.249 419.54 407.141 419.648 407.053 419.784C406.973 419.92 406.913 420.084 406.873 420.276C406.833 420.46 406.813 420.652 406.813 420.852C406.813 421.06 406.829 421.26 406.861 421.452C406.901 421.636 406.961 421.8 407.041 421.944C407.121 422.08 407.221 422.192 407.341 422.28C407.469 422.36 407.625 422.4 407.809 422.4C408.169 422.4 408.429 422.256 408.589 421.968C408.749 421.68 408.829 421.308 408.829 420.852ZM404.737 416.244C404.737 416.548 404.693 416.84 404.605 417.12C404.517 417.392 404.389 417.632 404.221 417.84C404.053 418.048 403.845 418.212 403.597 418.332C403.349 418.452 403.061 418.512 402.733 418.512C402.413 418.512 402.129 418.452 401.881 418.332C401.633 418.212 401.425 418.048 401.257 417.84C401.089 417.632 400.961 417.392 400.873 417.12C400.793 416.84 400.753 416.548 400.753 416.244C400.753 415.94 400.797 415.652 400.885 415.38C400.981 415.108 401.113 414.872 401.281 414.672C401.457 414.464 401.669 414.3 401.917 414.18C402.165 414.06 402.449 414 402.769 414C403.081 414 403.357 414.06 403.597 414.18C403.845 414.3 404.053 414.464 404.221 414.672C404.389 414.872 404.517 415.108 404.605 415.38C404.693 415.652 404.737 415.94 404.737 416.244ZM403.753 416.244C403.753 416.052 403.737 415.868 403.705 415.692C403.673 415.508 403.617 415.348 403.537 415.212C403.465 415.068 403.365 414.956 403.237 414.876C403.109 414.788 402.953 414.744 402.769 414.744C402.585 414.744 402.429 414.784 402.301 414.864C402.173 414.944 402.065 415.056 401.977 415.2C401.897 415.336 401.837 415.496 401.797 415.68C401.757 415.856 401.737 416.044 401.737 416.244C401.737 416.452 401.753 416.652 401.785 416.844C401.825 417.028 401.885 417.192 401.965 417.336C402.045 417.472 402.145 417.584 402.265 417.672C402.393 417.752 402.549 417.792 402.733 417.792C403.085 417.792 403.341 417.648 403.501 417.36C403.669 417.072 403.753 416.7 403.753 416.244Z" fill="white"/>
<path d="M385.912 467.44H387.052L390.22 471.964C390.364 472.172 390.5 472.38 390.628 472.588C390.756 472.796 390.864 472.984 390.952 473.152H390.976C390.936 472.56 390.916 471.972 390.916 471.388C390.916 470.796 390.916 470.2 390.916 469.6V467.44H392.152V475H391.012L387.928 470.62C387.776 470.404 387.628 470.172 387.484 469.924C387.34 469.668 387.216 469.44 387.112 469.24H387.088C387.128 469.864 387.148 470.484 387.148 471.1C387.148 471.708 387.148 472.32 387.148 472.936V475H385.912V467.44ZM399.291 472.384H395.319V472.432C395.319 473.008 395.487 473.444 395.822 473.74C396.159 474.036 396.603 474.184 397.155 474.184C397.459 474.184 397.731 474.16 397.971 474.112C398.219 474.056 398.467 473.972 398.715 473.86L398.955 474.76C398.723 474.864 398.447 474.948 398.127 475.012C397.807 475.084 397.455 475.12 397.071 475.12C396.663 475.12 396.275 475.064 395.906 474.952C395.539 474.84 395.215 474.664 394.935 474.424C394.663 474.184 394.447 473.88 394.287 473.512C394.126 473.144 394.046 472.704 394.046 472.192C394.046 471.752 394.11 471.352 394.238 470.992C394.374 470.624 394.562 470.312 394.802 470.056C395.051 469.792 395.347 469.592 395.691 469.456C396.043 469.312 396.431 469.24 396.855 469.24C397.223 469.24 397.554 469.3 397.85 469.42C398.155 469.54 398.411 469.712 398.619 469.936C398.835 470.152 398.999 470.42 399.111 470.74C399.231 471.052 399.291 471.4 399.291 471.784V472.384ZM398.019 471.52C398.019 471.328 397.995 471.148 397.947 470.98C397.899 470.812 397.827 470.668 397.731 470.548C397.635 470.42 397.507 470.32 397.347 470.248C397.195 470.168 397.011 470.128 396.794 470.128C396.395 470.128 396.067 470.256 395.811 470.512C395.563 470.768 395.411 471.112 395.355 471.544L398.019 471.52ZM400.309 469.336H401.617L402.505 472.708L402.721 474.052H402.769L403.033 472.708L403.909 469.336H405.229L406.141 472.708L406.393 474.052H406.441L406.693 472.708L407.557 469.336H408.817L407.149 475H405.721L404.833 471.664L404.569 470.272L404.293 471.664L403.381 475H402.001L400.309 469.336Z" fill="#D4DCE2"/>
<circle cx="774" cy="419" r="19" fill="#264A51"/>
<circle cx="774" cy="471" r="19" fill="#71B3C6"/>
<path d="M763 418.98V420.012H760.36V418.98H763ZM766.216 416.304C765.96 416.304 765.716 416.352 765.484 416.448C765.252 416.536 765.004 416.684 764.74 416.892L764.2 416.088C764.544 415.808 764.884 415.612 765.22 415.5C765.564 415.38 765.92 415.32 766.288 415.32C766.688 415.32 767.04 415.38 767.344 415.5C767.648 415.612 767.9 415.768 768.1 415.968C768.3 416.168 768.448 416.404 768.544 416.676C768.648 416.948 768.7 417.244 768.7 417.564C768.7 418.132 768.484 418.716 768.052 419.316C767.62 419.916 767.028 420.58 766.276 421.308L765.556 422.004H768.844V423H764.272L764.044 422.148L765.076 421.116C765.5 420.692 765.86 420.316 766.156 419.988C766.46 419.652 766.704 419.348 766.888 419.076C767.08 418.804 767.22 418.552 767.308 418.32C767.396 418.088 767.44 417.856 767.44 417.624C767.44 417.232 767.336 416.916 767.128 416.676C766.92 416.428 766.616 416.304 766.216 416.304ZM773.396 415.32C773.828 415.32 774.224 415.396 774.584 415.548C774.952 415.692 775.268 415.924 775.532 416.244C775.796 416.556 776.004 416.96 776.156 417.456C776.308 417.944 776.384 418.532 776.384 419.22C776.384 419.908 776.3 420.496 776.132 420.984C775.972 421.472 775.752 421.876 775.472 422.196C775.2 422.516 774.884 422.752 774.524 422.904C774.164 423.048 773.784 423.12 773.384 423.12C772.952 423.12 772.552 423.048 772.184 422.904C771.824 422.752 771.508 422.52 771.236 422.208C770.972 421.888 770.764 421.484 770.612 420.996C770.46 420.5 770.384 419.908 770.384 419.22C770.384 418.564 770.464 417.992 770.624 417.504C770.792 417.008 771.012 416.6 771.284 416.28C771.564 415.96 771.884 415.72 772.244 415.56C772.612 415.4 772.996 415.32 773.396 415.32ZM771.668 419.22C771.668 419.82 771.716 420.312 771.812 420.696C771.908 421.072 772.036 421.372 772.196 421.596C772.356 421.812 772.54 421.964 772.748 422.052C772.956 422.132 773.172 422.172 773.396 422.172C773.62 422.172 773.836 422.128 774.044 422.04C774.252 421.944 774.432 421.784 774.584 421.56C774.744 421.336 774.868 421.036 774.956 420.66C775.052 420.276 775.1 419.796 775.1 419.22C775.1 418.62 775.052 418.132 774.956 417.756C774.86 417.372 774.732 417.072 774.572 416.856C774.42 416.632 774.24 416.48 774.032 416.4C773.824 416.312 773.608 416.268 773.384 416.268C773.16 416.268 772.944 416.316 772.736 416.412C772.528 416.5 772.344 416.656 772.184 416.88C772.032 417.104 771.908 417.408 771.812 417.792C771.716 418.168 771.668 418.644 771.668 419.22ZM779.313 423L784.557 414H785.397L780.153 423H779.313ZM786.813 420.852C786.813 421.156 786.769 421.448 786.681 421.728C786.601 422 786.477 422.24 786.309 422.448C786.141 422.656 785.929 422.82 785.673 422.94C785.425 423.06 785.137 423.12 784.809 423.12C784.489 423.12 784.205 423.06 783.957 422.94C783.709 422.82 783.501 422.656 783.333 422.448C783.165 422.24 783.037 422 782.949 421.728C782.869 421.448 782.829 421.156 782.829 420.852C782.829 420.548 782.873 420.26 782.961 419.988C783.057 419.716 783.189 419.48 783.357 419.28C783.533 419.072 783.745 418.908 783.993 418.788C784.241 418.668 784.525 418.608 784.845 418.608C785.157 418.608 785.433 418.668 785.673 418.788C785.921 418.908 786.129 419.072 786.297 419.28C786.465 419.48 786.593 419.716 786.681 419.988C786.769 420.26 786.813 420.548 786.813 420.852ZM785.829 420.852C785.829 420.66 785.813 420.472 785.781 420.288C785.749 420.104 785.693 419.94 785.613 419.796C785.541 419.652 785.441 419.54 785.313 419.46C785.185 419.372 785.029 419.328 784.845 419.328C784.661 419.328 784.505 419.372 784.377 419.46C784.249 419.54 784.141 419.648 784.053 419.784C783.973 419.92 783.913 420.084 783.873 420.276C783.833 420.46 783.813 420.652 783.813 420.852C783.813 421.06 783.829 421.26 783.861 421.452C783.901 421.636 783.961 421.8 784.041 421.944C784.121 422.08 784.221 422.192 784.341 422.28C784.469 422.36 784.625 422.4 784.809 422.4C785.169 422.4 785.429 422.256 785.589 421.968C785.749 421.68 785.829 421.308 785.829 420.852ZM781.737 416.244C781.737 416.548 781.693 416.84 781.605 417.12C781.517 417.392 781.389 417.632 781.221 417.84C781.053 418.048 780.845 418.212 780.597 418.332C780.349 418.452 780.061 418.512 779.733 418.512C779.413 418.512 779.129 418.452 778.881 418.332C778.633 418.212 778.425 418.048 778.257 417.84C778.089 417.632 777.961 417.392 777.873 417.12C777.793 416.84 777.753 416.548 777.753 416.244C777.753 415.94 777.797 415.652 777.885 415.38C777.981 415.108 778.113 414.872 778.281 414.672C778.457 414.464 778.669 414.3 778.917 414.18C779.165 414.06 779.449 414 779.769 414C780.081 414 780.357 414.06 780.597 414.18C780.845 414.3 781.053 414.464 781.221 414.672C781.389 414.872 781.517 415.108 781.605 415.38C781.693 415.652 781.737 415.94 781.737 416.244ZM780.753 416.244C780.753 416.052 780.737 415.868 780.705 415.692C780.673 415.508 780.617 415.348 780.537 415.212C780.465 415.068 780.365 414.956 780.237 414.876C780.109 414.788 779.953 414.744 779.769 414.744C779.585 414.744 779.429 414.784 779.301 414.864C779.173 414.944 779.065 415.056 778.977 415.2C778.897 415.336 778.837 415.496 778.797 415.68C778.757 415.856 778.737 416.044 778.737 416.244C778.737 416.452 778.753 416.652 778.785 416.844C778.825 417.028 778.885 417.192 778.965 417.336C779.045 417.472 779.145 417.584 779.265 417.672C779.393 417.752 779.549 417.792 779.733 417.792C780.085 417.792 780.341 417.648 780.501 417.36C780.669 417.072 780.753 416.7 780.753 416.244Z" fill="white"/>
<path d="M762.912 467.44H764.052L767.22 471.964C767.364 472.172 767.5 472.38 767.628 472.588C767.756 472.796 767.864 472.984 767.952 473.152H767.976C767.936 472.56 767.916 471.972 767.916 471.388C767.916 470.796 767.916 470.2 767.916 469.6V467.44H769.152V475H768.012L764.928 470.62C764.776 470.404 764.628 470.172 764.484 469.924C764.34 469.668 764.216 469.44 764.112 469.24H764.088C764.128 469.864 764.148 470.484 764.148 471.1C764.148 471.708 764.148 472.32 764.148 472.936V475H762.912V467.44ZM776.291 472.384H772.319V472.432C772.319 473.008 772.487 473.444 772.822 473.74C773.159 474.036 773.603 474.184 774.155 474.184C774.459 474.184 774.731 474.16 774.971 474.112C775.219 474.056 775.467 473.972 775.715 473.86L775.955 474.76C775.723 474.864 775.447 474.948 775.127 475.012C774.807 475.084 774.455 475.12 774.071 475.12C773.663 475.12 773.275 475.064 772.906 474.952C772.539 474.84 772.215 474.664 771.935 474.424C771.663 474.184 771.447 473.88 771.287 473.512C771.126 473.144 771.046 472.704 771.046 472.192C771.046 471.752 771.11 471.352 771.238 470.992C771.374 470.624 771.562 470.312 771.802 470.056C772.051 469.792 772.347 469.592 772.691 469.456C773.043 469.312 773.431 469.24 773.855 469.24C774.223 469.24 774.554 469.3 774.85 469.42C775.155 469.54 775.411 469.712 775.619 469.936C775.835 470.152 775.999 470.42 776.111 470.74C776.231 471.052 776.291 471.4 776.291 471.784V472.384ZM775.019 471.52C775.019 471.328 774.995 471.148 774.947 470.98C774.899 470.812 774.827 470.668 774.731 470.548C774.635 470.42 774.507 470.32 774.347 470.248C774.195 470.168 774.011 470.128 773.794 470.128C773.395 470.128 773.067 470.256 772.811 470.512C772.563 470.768 772.411 471.112 772.355 471.544L775.019 471.52ZM777.309 469.336H778.617L779.505 472.708L779.721 474.052H779.769L780.033 472.708L780.909 469.336H782.229L783.141 472.708L783.393 474.052H783.441L783.693 472.708L784.557 469.336H785.817L784.149 475H782.721L781.833 471.664L781.569 470.272L781.293 471.664L780.381 475H779.001L777.309 469.336Z" fill="#D4DCE2"/>
<circle cx="19" cy="419" r="19" fill="#264A51"/>
<circle cx="19" cy="471" r="19" fill="#71B3C6"/>
<path d="M8 418.98V420.012H5.36V418.98H8ZM11.216 416.304C10.96 416.304 10.716 416.352 10.484 416.448C10.252 416.536 10.004 416.684 9.74 416.892L9.2 416.088C9.544 415.808 9.884 415.612 10.22 415.5C10.564 415.38 10.92 415.32 11.288 415.32C11.688 415.32 12.04 415.38 12.344 415.5C12.648 415.612 12.9 415.768 13.1 415.968C13.3 416.168 13.448 416.404 13.544 416.676C13.648 416.948 13.7 417.244 13.7 417.564C13.7 418.132 13.484 418.716 13.052 419.316C12.62 419.916 12.028 420.58 11.276 421.308L10.556 422.004H13.844V423H9.272L9.044 422.148L10.076 421.116C10.5 420.692 10.86 420.316 11.156 419.988C11.46 419.652 11.704 419.348 11.888 419.076C12.08 418.804 12.22 418.552 12.308 418.32C12.396 418.088 12.44 417.856 12.44 417.624C12.44 417.232 12.336 416.916 12.128 416.676C11.92 416.428 11.616 416.304 11.216 416.304ZM18.3962 415.32C18.8282 415.32 19.2242 415.396 19.5842 415.548C19.9522 415.692 20.2682 415.924 20.5322 416.244C20.7962 416.556 21.0042 416.96 21.1562 417.456C21.3082 417.944 21.3842 418.532 21.3842 419.22C21.3842 419.908 21.3002 420.496 21.1322 420.984C20.9722 421.472 20.7522 421.876 20.4722 422.196C20.2002 422.516 19.8842 422.752 19.5242 422.904C19.1642 423.048 18.7842 423.12 18.3842 423.12C17.9522 423.12 17.5522 423.048 17.1842 422.904C16.8242 422.752 16.5082 422.52 16.2362 422.208C15.9722 421.888 15.7642 421.484 15.6122 420.996C15.4602 420.5 15.3842 419.908 15.3842 419.22C15.3842 418.564 15.4642 417.992 15.6242 417.504C15.7922 417.008 16.0122 416.6 16.2842 416.28C16.5642 415.96 16.8842 415.72 17.2442 415.56C17.6122 415.4 17.9962 415.32 18.3962 415.32ZM16.6682 419.22C16.6682 419.82 16.7162 420.312 16.8122 420.696C16.9082 421.072 17.0362 421.372 17.1962 421.596C17.3562 421.812 17.5402 421.964 17.7482 422.052C17.9562 422.132 18.1722 422.172 18.3962 422.172C18.6202 422.172 18.8362 422.128 19.0442 422.04C19.2522 421.944 19.4322 421.784 19.5842 421.56C19.7442 421.336 19.8682 421.036 19.9562 420.66C20.0522 420.276 20.1002 419.796 20.1002 419.22C20.1002 418.62 20.0522 418.132 19.9562 417.756C19.8602 417.372 19.7322 417.072 19.5722 416.856C19.4202 416.632 19.2402 416.48 19.0322 416.4C18.8242 416.312 18.6082 416.268 18.3842 416.268C18.1602 416.268 17.9442 416.316 17.7362 416.412C17.5282 416.5 17.3442 416.656 17.1842 416.88C17.0322 417.104 16.9082 417.408 16.8122 417.792C16.7162 418.168 16.6682 418.644 16.6682 419.22ZM24.3132 423L29.5572 414H30.3972L25.1532 423H24.3132ZM31.8132 420.852C31.8132 421.156 31.7692 421.448 31.6812 421.728C31.6012 422 31.4772 422.24 31.3092 422.448C31.1412 422.656 30.9292 422.82 30.6732 422.94C30.4252 423.06 30.1372 423.12 29.8092 423.12C29.4892 423.12 29.2052 423.06 28.9572 422.94C28.7092 422.82 28.5012 422.656 28.3332 422.448C28.1652 422.24 28.0372 422 27.9492 421.728C27.8692 421.448 27.8292 421.156 27.8292 420.852C27.8292 420.548 27.8732 420.26 27.9612 419.988C28.0572 419.716 28.1892 419.48 28.3572 419.28C28.5332 419.072 28.7452 418.908 28.9932 418.788C29.2412 418.668 29.5252 418.608 29.8452 418.608C30.1572 418.608 30.4332 418.668 30.6732 418.788C30.9212 418.908 31.1292 419.072 31.2972 419.28C31.4652 419.48 31.5932 419.716 31.6812 419.988C31.7692 420.26 31.8132 420.548 31.8132 420.852ZM30.8292 420.852C30.8292 420.66 30.8132 420.472 30.7812 420.288C30.7492 420.104 30.6932 419.94 30.6132 419.796C30.5412 419.652 30.4412 419.54 30.3132 419.46C30.1852 419.372 30.0292 419.328 29.8452 419.328C29.6612 419.328 29.5052 419.372 29.3772 419.46C29.2492 419.54 29.1412 419.648 29.0532 419.784C28.9732 419.92 28.9132 420.084 28.8732 420.276C28.8332 420.46 28.8132 420.652 28.8132 420.852C28.8132 421.06 28.8292 421.26 28.8612 421.452C28.9012 421.636 28.9612 421.8 29.0412 421.944C29.1212 422.08 29.2212 422.192 29.3412 422.28C29.4692 422.36 29.6252 422.4 29.8092 422.4C30.1692 422.4 30.4292 422.256 30.5892 421.968C30.7492 421.68 30.8292 421.308 30.8292 420.852ZM26.7372 416.244C26.7372 416.548 26.6932 416.84 26.6052 417.12C26.5172 417.392 26.3892 417.632 26.2212 417.84C26.0532 418.048 25.8452 418.212 25.5972 418.332C25.3492 418.452 25.0612 418.512 24.7332 418.512C24.4132 418.512 24.1292 418.452 23.8812 418.332C23.6332 418.212 23.4252 418.048 23.2572 417.84C23.0892 417.632 22.9612 417.392 22.8732 417.12C22.7932 416.84 22.7532 416.548 22.7532 416.244C22.7532 415.94 22.7972 415.652 22.8852 415.38C22.9812 415.108 23.1132 414.872 23.2812 414.672C23.4572 414.464 23.6692 414.3 23.9172 414.18C24.1652 414.06 24.4492 414 24.7692 414C25.0812 414 25.3572 414.06 25.5972 414.18C25.8452 414.3 26.0532 414.464 26.2212 414.672C26.3892 414.872 26.5172 415.108 26.6052 415.38C26.6932 415.652 26.7372 415.94 26.7372 416.244ZM25.7532 416.244C25.7532 416.052 25.7372 415.868 25.7052 415.692C25.6732 415.508 25.6172 415.348 25.5372 415.212C25.4652 415.068 25.3652 414.956 25.2372 414.876C25.1092 414.788 24.9532 414.744 24.7692 414.744C24.5852 414.744 24.4292 414.784 24.3012 414.864C24.1732 414.944 24.0652 415.056 23.9772 415.2C23.8972 415.336 23.8372 415.496 23.7972 415.68C23.7572 415.856 23.7372 416.044 23.7372 416.244C23.7372 416.452 23.7532 416.652 23.7852 416.844C23.8252 417.028 23.8852 417.192 23.9652 417.336C24.0452 417.472 24.1452 417.584 24.2652 417.672C24.3932 417.752 24.5492 417.792 24.7332 417.792C25.0852 417.792 25.3412 417.648 25.5012 417.36C25.6692 417.072 25.7532 416.7 25.7532 416.244Z" fill="white"/>
<path d="M7.912 467.44H9.052L12.22 471.964C12.364 472.172 12.5 472.38 12.628 472.588C12.756 472.796 12.864 472.984 12.952 473.152H12.976C12.936 472.56 12.916 471.972 12.916 471.388C12.916 470.796 12.916 470.2 12.916 469.6V467.44H14.152V475H13.012L9.928 470.62C9.776 470.404 9.628 470.172 9.484 469.924C9.34 469.668 9.216 469.44 9.112 469.24H9.088C9.128 469.864 9.148 470.484 9.148 471.1C9.148 471.708 9.148 472.32 9.148 472.936V475H7.912V467.44ZM21.2905 472.384H17.3185V472.432C17.3185 473.008 17.4865 473.444 17.8225 473.74C18.1585 474.036 18.6025 474.184 19.1545 474.184C19.4585 474.184 19.7305 474.16 19.9705 474.112C20.2185 474.056 20.4665 473.972 20.7145 473.86L20.9545 474.76C20.7225 474.864 20.4465 474.948 20.1265 475.012C19.8065 475.084 19.4545 475.12 19.0705 475.12C18.6625 475.12 18.2745 475.064 17.9065 474.952C17.5385 474.84 17.2145 474.664 16.9345 474.424C16.6625 474.184 16.4465 473.88 16.2865 473.512C16.1265 473.144 16.0465 472.704 16.0465 472.192C16.0465 471.752 16.1105 471.352 16.2385 470.992C16.3745 470.624 16.5625 470.312 16.8025 470.056C17.0505 469.792 17.3465 469.592 17.6905 469.456C18.0425 469.312 18.4305 469.24 18.8545 469.24C19.2225 469.24 19.5545 469.3 19.8505 469.42C20.1545 469.54 20.4105 469.712 20.6185 469.936C20.8345 470.152 20.9985 470.42 21.1105 470.74C21.2305 471.052 21.2905 471.4 21.2905 471.784V472.384ZM20.0185 471.52C20.0185 471.328 19.9945 471.148 19.9465 470.98C19.8985 470.812 19.8265 470.668 19.7305 470.548C19.6345 470.42 19.5065 470.32 19.3465 470.248C19.1945 470.168 19.0105 470.128 18.7945 470.128C18.3945 470.128 18.0665 470.256 17.8105 470.512C17.5625 470.768 17.4105 471.112 17.3545 471.544L20.0185 471.52ZM22.3094 469.336H23.6174L24.5054 472.708L24.7214 474.052H24.7694L25.0334 472.708L25.9094 469.336H27.2294L28.1414 472.708L28.3934 474.052H28.4414L28.6934 472.708L29.5574 469.336H30.8174L29.1494 475H27.7214L26.8334 471.664L26.5694 470.272L26.2934 471.664L25.3814 475H24.0014L22.3094 469.336Z" fill="#D4DCE2"/>
</svg>
